# xmcd
#
# Track frame offsets:
#	150
#	132150
#	169488
#	183592
#	210667
#	238518
#
# Disc length: 3545 seconds
#
# Revision: 1
# Processed by: cddbd v1.5.2PL0 Copyright (c) Steve Scherf et al.
# Submitted via: audiograbber 1.83.01
#
DISCID=530dd706
DTITLE=Grateful Dead - 74-06-16 State Fairgrounds, Des Moines IA
DYEAR=1900
DGENRE=
TTITLE0=Playing In The Band
TTITLE1=Tennessee Jed
TTITLE2=Me and My Uncle
TTITLE3=Deal
TTITLE4=Greatest Story Ever Told
TTITLE5=Ship Of Fools
EXTD=
EXTT0=
EXTT1=
EXTT2=
EXTT3=
EXTT4=
EXTT5=
PLAYORDER=
